<svg width="12" height="12" viewBox="0 0 12 12" fill="none" xmlns="http://www.w3.org/2000/svg">
<path fill-rule="evenodd" clip-rule="evenodd" d="M6.02555 0.0220503C2.72377 0.00987852 0.0341889 2.67971 0.0220171 5.98149C0.00984537 9.28327 2.67967 11.9728 5.98145 11.985C9.28323 11.9972 11.9728 9.32737 11.985 6.02559C11.9972 2.72381 9.32733 0.034222 6.02555 0.0220503ZM6.58621 10.1928L5.38992 10.1884L5.39433 8.99207L6.59062 8.99648L6.58621 10.1928ZM7.84147 5.56169L7.30111 6.11C6.86883 6.54506 6.59834 6.90296 6.59504 7.80018L5.39874 7.79577L5.39984 7.4967C5.40227 6.83874 5.67364 6.24158 6.10592 5.80652L6.8504 5.05559C7.07251 4.84107 7.2052 4.54248 7.20641 4.2135C7.20884 3.55553 6.67249 3.01522 6.01453 3.01279C5.35656 3.01037 4.81625 3.54671 4.81382 4.20468L3.61752 4.20027C3.6224 2.87836 4.69703 1.81162 6.01894 1.81649C7.34085 1.82137 8.40758 2.896 8.40271 4.21791C8.40077 4.74428 8.18367 5.222 7.84147 5.56169Z" fill="#898989"/>
</svg>
