<svg width="29" height="30" viewBox="0 0 29 30" fill="none" xmlns="http://www.w3.org/2000/svg">
<path d="M18.0445 16.3855H19.8137V19.872L22.6916 21.6152L21.807 23.2224L18.0445 20.9476V16.3855ZM21.7363 11.8483C20.6747 8.73273 17.844 6.495 14.5061 6.495C11.3215 6.495 8.60875 8.53492 7.42928 11.4403C4.17394 11.4403 1.53192 14.2096 1.53192 17.6219C1.53192 21.0341 4.17394 23.8035 7.42928 23.8035H11.7697C13.1025 26.7212 15.9333 28.7487 19.224 28.7487C23.7885 28.7487 27.4803 24.879 27.4803 20.0945C27.4803 16.2372 25.0742 12.9733 21.7363 11.8483ZM7.42928 21.3308C5.47136 21.3308 3.89086 19.6741 3.89086 17.6219C3.89086 15.5696 5.47136 13.9129 7.42928 13.9129C7.86568 13.9129 8.29029 13.9994 8.67952 14.1478C8.90716 12.7005 9.61804 11.385 10.6853 10.4362C11.7525 9.48733 13.1067 8.96685 14.5061 8.96763C16.4286 8.96763 18.1271 9.94432 19.224 11.4403C14.6476 11.4403 10.9677 15.3223 10.9677 20.0945C10.9677 20.5148 11.0031 20.9228 11.0621 21.3308H7.42928ZM19.224 26.2761C15.9687 26.2761 13.3266 23.5067 13.3266 20.0945C13.3266 16.6823 15.9687 13.9129 19.224 13.9129C22.4793 13.9129 25.1214 16.6823 25.1214 20.0945C25.1214 23.5067 22.4793 26.2761 19.224 26.2761Z" fill="#0043FF"/>
</svg>
