<svg width="24" height="24" viewBox="0 0 24 24" fill="none" xmlns="http://www.w3.org/2000/svg">
<path d="M21 21L15 15M3 10C3 10.9193 3.18106 11.8295 3.53284 12.6788C3.88463 13.5281 4.40024 14.2997 5.05025 14.9497C5.70026 15.5998 6.47194 16.1154 7.32122 16.4672C8.1705 16.8189 9.08075 17 10 17C10.9193 17 11.8295 16.8189 12.6788 16.4672C13.5281 16.1154 14.2997 15.5998 14.9497 14.9497C15.5998 14.2997 16.1154 13.5281 16.4672 12.6788C16.8189 11.8295 17 10.9193 17 10C17 9.08075 16.8189 8.1705 16.4672 7.32122C16.1154 6.47194 15.5998 5.70026 14.9497 5.05025C14.2997 4.40024 13.5281 3.88463 12.6788 3.53284C11.8295 3.18106 10.9193 3 10 3C9.08075 3 8.1705 3.18106 7.32122 3.53284C6.47194 3.88463 5.70026 4.40024 5.05025 5.05025C4.40024 5.70026 3.88463 6.47194 3.53284 7.32122C3.18106 8.1705 3 9.08075 3 10Z" stroke="#0063F7" stroke-width="2" stroke-linecap="round" stroke-linejoin="round"/>
<path d="M12 7H9.5C9.10218 7 8.72064 7.15804 8.43934 7.43934C8.15804 7.72064 8 8.10218 8 8.5C8 8.89782 8.15804 9.27936 8.43934 9.56066C8.72064 9.84196 9.10218 10 9.5 10H10.5C10.8978 10 11.2794 10.158 11.5607 10.4393C11.842 10.7206 12 11.1022 12 11.5C12 11.8978 11.842 12.2794 11.5607 12.5607C11.2794 12.842 10.8978 13 10.5 13H8M10 13V14M10 6V7" stroke="#0063F7" stroke-width="2" stroke-linecap="round" stroke-linejoin="round"/>
</svg>
