<svg width="20" height="24" viewBox="0 0 20 24" fill="none" xmlns="http://www.w3.org/2000/svg">
<path d="M9.89452 23.8371C8.5957 23.8371 7.3713 23.5747 6.22131 23.05C5.07133 22.5253 4.06667 21.8126 3.20734 20.9119C2.34731 20.0104 1.66701 18.9569 1.16643 17.7515C0.665861 16.5461 0.415925 15.2631 0.416627 13.9024H2.52283C2.52283 16.0365 3.24244 17.8579 4.68168 19.3665C6.12092 20.8751 7.85853 21.6294 9.89452 21.6294C11.9305 21.6294 13.6681 20.8751 15.1074 19.3665C16.5466 17.8579 17.2662 16.0365 17.2662 13.9024H19.3724C19.3724 15.2638 19.1221 16.5472 18.6216 17.7526C18.121 18.958 17.441 20.0111 16.5817 20.9119C15.7217 21.8133 14.7167 22.5264 13.5667 23.0511C12.4167 23.5758 11.1926 23.8378 9.89452 23.8371ZM0.416627 13.9024C0.416627 12.5409 0.666914 11.2575 1.16749 10.0521C1.66806 8.84671 2.34801 7.79363 3.20734 6.89288C4.06737 5.9914 5.07238 5.27831 6.22237 4.75361C7.37235 4.22891 8.5964 3.96693 9.89452 3.96766C10.9827 3.96766 12.0271 4.15164 13.0275 4.51959C14.0279 4.88754 14.967 5.42107 15.8445 6.12018L17.3189 4.57479L18.7932 6.12018L17.3189 7.66558C17.9858 8.58546 18.4948 9.56973 18.8459 10.6184C19.1969 11.6671 19.3724 12.7617 19.3724 13.9024H17.2662C17.2662 11.7682 16.5466 9.94688 15.1074 8.43828C13.6681 6.92968 11.9305 6.17538 9.89452 6.17538C7.85853 6.17538 6.12092 6.92968 4.68168 8.43828C3.24244 9.94688 2.52283 11.7682 2.52283 13.9024H0.416627ZM6.73523 2.86381V0.656097H13.0538V2.86381H6.73523ZM9.89452 6.17538C8.03405 6.17538 6.4193 6.81009 5.05027 8.07953C3.68124 9.34896 2.86508 10.922 2.60181 12.7985H6.34031L7.70934 15.4478L12.0007 7.5552L14.7388 12.7985H17.1872C16.924 10.922 16.1078 9.34896 14.7388 8.07953C13.3698 6.81009 11.755 6.17538 9.89452 6.17538ZM9.89452 21.6294C11.755 21.6294 13.3698 20.9946 14.7388 19.7252C16.1078 18.4558 16.924 16.8828 17.1872 15.0062H13.4487L12.0797 12.357L7.78832 20.2495L5.05027 15.0062H2.60181C2.86508 16.8828 3.68124 18.4558 5.05027 19.7252C6.4193 20.9946 8.03405 21.6294 9.89452 21.6294ZM9.89452 21.6294C7.85853 21.6294 6.12092 20.8751 4.68168 19.3665C3.24244 17.8579 2.52283 16.0365 2.52283 13.9024C2.52283 11.7682 3.24244 9.94688 4.68168 8.43828C6.12092 6.92968 7.85853 6.17538 9.89452 6.17538C11.9305 6.17538 13.6681 6.92968 15.1074 8.43828C16.5466 9.94688 17.2662 11.7682 17.2662 13.9024C17.2662 16.0365 16.5466 17.8579 15.1074 19.3665C13.6681 20.8751 11.9305 21.6294 9.89452 21.6294Z" fill="#0043FF"/>
</svg>
